# xmcd CD database file
#
# Track frame offsets:
#	150
#	28886
#	53577
#	70663
#	91731
#	121732
#	151329
#	180800
#	212527
#	272970
#	277320
#	306774
#	332797
#
# Disc length: 4794 seconds
#
# Revision: 0
# Processed by: cddbd v1.5.1PL2 Copyright (c) Steve Scherf et al.
# Submitted via: CDex 1.51
#
DISCID=af12b80d
DTITLE=BC and the Blues Cres - Live and Unplugged
DYEAR=2004
DGENRE=Blues
TTITLE0=Evening Sun
TTITLE1=Instant Breakfast
TTITLE2=You Must Think I'm Blind
TTITLE3=Hack's
TTITLE4=Hip Shakin' Mama
TTITLE5=Mellow Down easy
TTITLE6=You Can Have My Husband - You Got the Wrong Number - Beer Bottle Boogie
TTITLE7=Damn Your Eyes
TTITLE8=Don't Jump My Pony - Wang Dang Doodle - Mustang Sally - Hard to Handle
TTITLE9=Encore
TTITLE10=Middle Age Blues
TTITLE11=Instrumental
TTITLE12=Tupelo Honey
EXTD=YEAR: 2004
EXTT0=
EXTT1=
EXTT2=
EXTT3=
EXTT4=
EXTT5=
EXTT6=
EXTT7=
EXTT8=
EXTT9=
EXTT10=
EXTT11=
EXTT12=
PLAYORDER=
